<mxfile host="Electron" agent="Mozilla/5.0 (Windows NT 10.0; Win64; x64) AppleWebKit/537.36 (KHTML, like Gecko) draw.io/24.7.17 Chrome/128.0.6613.36 Electron/32.0.1 Safari/537.36" version="24.7.17">
  <diagram name="Страница — 1" id="kYXAjykHZ7thILa3HCrF">
    <mxGraphModel dx="858" dy="1518" grid="1" gridSize="10" guides="1" tooltips="1" connect="1" arrows="1" fold="1" page="1" pageScale="1" pageWidth="827" pageHeight="1169" math="0" shadow="0">
      <root>
        <mxCell id="0" />
        <mxCell id="1" parent="0" />
        <mxCell id="JEXxJmJUqQq23T9oJtIg-4" style="edgeStyle=orthogonalEdgeStyle;rounded=0;orthogonalLoop=1;jettySize=auto;html=1;exitX=0.5;exitY=1;exitDx=0;exitDy=0;entryX=0.5;entryY=0;entryDx=0;entryDy=0;" edge="1" parent="1" source="JEXxJmJUqQq23T9oJtIg-2">
          <mxGeometry relative="1" as="geometry">
            <mxPoint x="240" y="160" as="targetPoint" />
          </mxGeometry>
        </mxCell>
        <mxCell id="JEXxJmJUqQq23T9oJtIg-2" value="Начало" style="ellipse;whiteSpace=wrap;html=1;" vertex="1" parent="1">
          <mxGeometry x="180" y="40" width="120" height="80" as="geometry" />
        </mxCell>
        <mxCell id="JEXxJmJUqQq23T9oJtIg-6" value="&lt;div&gt;#include &amp;lt;iostream&amp;gt;&lt;/div&gt;&lt;div&gt;using namespace std;&lt;/div&gt;&lt;div&gt;int main()&lt;/div&gt;&lt;div&gt;{&lt;/div&gt;&lt;div&gt;&lt;span style=&quot;white-space-collapse: collapse;&quot;&gt;&lt;span style=&quot;white-space-collapse: preserve;&quot;&gt;&#x9;&lt;/span&gt;setlocale(LC_ALL, &quot;Russian&quot;);&lt;/span&gt;&lt;/div&gt;&lt;div&gt;&lt;span style=&quot;white-space-collapse: collapse;&quot;&gt;&lt;span style=&quot;white-space-collapse: preserve;&quot;&gt;&#x9;&lt;/span&gt;int n, tmp, max, min;&lt;/span&gt;&lt;/div&gt;" style="strokeWidth=2;html=1;shape=mxgraph.flowchart.annotation_1;align=left;pointerEvents=1;" vertex="1" parent="1">
          <mxGeometry x="320" y="80" width="50" height="100" as="geometry" />
        </mxCell>
        <mxCell id="JEXxJmJUqQq23T9oJtIg-7" value="" style="endArrow=none;dashed=1;html=1;dashPattern=1 3;strokeWidth=2;rounded=0;" edge="1" parent="1" source="JEXxJmJUqQq23T9oJtIg-6">
          <mxGeometry width="50" height="50" relative="1" as="geometry">
            <mxPoint x="240" y="350" as="sourcePoint" />
            <mxPoint x="240" y="130" as="targetPoint" />
          </mxGeometry>
        </mxCell>
        <mxCell id="JEXxJmJUqQq23T9oJtIg-53" style="edgeStyle=orthogonalEdgeStyle;rounded=0;orthogonalLoop=1;jettySize=auto;html=1;exitX=0.5;exitY=1;exitDx=0;exitDy=0;entryX=0.5;entryY=0;entryDx=0;entryDy=0;" edge="1" parent="1" target="JEXxJmJUqQq23T9oJtIg-52">
          <mxGeometry relative="1" as="geometry">
            <mxPoint x="239.99999999999977" y="1210" as="sourcePoint" />
          </mxGeometry>
        </mxCell>
        <mxCell id="JEXxJmJUqQq23T9oJtIg-52" value="Конец" style="ellipse;whiteSpace=wrap;html=1;" vertex="1" parent="1">
          <mxGeometry x="180" y="1260" width="120" height="80" as="geometry" />
        </mxCell>
        <mxCell id="JEXxJmJUqQq23T9oJtIg-54" value="&lt;div&gt;&lt;span style=&quot;white-space-collapse: collapse;&quot;&gt;&lt;span style=&quot;white-space-collapse: preserve;&quot;&gt;&#x9;&lt;/span&gt;return 0;&lt;/span&gt;&lt;/div&gt;&lt;div&gt;}&lt;/div&gt;&lt;div&gt;&lt;br&gt;&lt;/div&gt;" style="strokeWidth=2;html=1;shape=mxgraph.flowchart.annotation_1;align=left;pointerEvents=1;" vertex="1" parent="1">
          <mxGeometry x="320" y="1190" width="50" height="100" as="geometry" />
        </mxCell>
        <mxCell id="JEXxJmJUqQq23T9oJtIg-55" value="" style="endArrow=none;dashed=1;html=1;dashPattern=1 3;strokeWidth=2;rounded=0;" edge="1" parent="1" source="JEXxJmJUqQq23T9oJtIg-54">
          <mxGeometry width="50" height="50" relative="1" as="geometry">
            <mxPoint x="250" y="250" as="sourcePoint" />
            <mxPoint x="240" y="1240" as="targetPoint" />
          </mxGeometry>
        </mxCell>
        <mxCell id="JEXxJmJUqQq23T9oJtIg-58" style="edgeStyle=orthogonalEdgeStyle;rounded=0;orthogonalLoop=1;jettySize=auto;html=1;exitX=0.5;exitY=1;exitDx=0;exitDy=0;entryX=0.5;entryY=0;entryDx=0;entryDy=0;" edge="1" parent="1" source="JEXxJmJUqQq23T9oJtIg-56" target="JEXxJmJUqQq23T9oJtIg-57">
          <mxGeometry relative="1" as="geometry" />
        </mxCell>
        <mxCell id="JEXxJmJUqQq23T9oJtIg-56" value="cout &amp;lt;&amp;lt; &quot;Введите длину последовательности: \n&quot;;" style="shape=parallelogram;perimeter=parallelogramPerimeter;whiteSpace=wrap;html=1;fixedSize=1;" vertex="1" parent="1">
          <mxGeometry x="180" y="160" width="120" height="60" as="geometry" />
        </mxCell>
        <mxCell id="JEXxJmJUqQq23T9oJtIg-61" style="edgeStyle=orthogonalEdgeStyle;rounded=0;orthogonalLoop=1;jettySize=auto;html=1;exitX=0.5;exitY=1;exitDx=0;exitDy=0;entryX=0.5;entryY=0;entryDx=0;entryDy=0;" edge="1" parent="1" source="JEXxJmJUqQq23T9oJtIg-57" target="JEXxJmJUqQq23T9oJtIg-59">
          <mxGeometry relative="1" as="geometry" />
        </mxCell>
        <mxCell id="JEXxJmJUqQq23T9oJtIg-57" value="cin &amp;gt;&amp;gt; n;" style="shape=parallelogram;perimeter=parallelogramPerimeter;whiteSpace=wrap;html=1;fixedSize=1;" vertex="1" parent="1">
          <mxGeometry x="180" y="250" width="120" height="60" as="geometry" />
        </mxCell>
        <mxCell id="JEXxJmJUqQq23T9oJtIg-62" style="edgeStyle=orthogonalEdgeStyle;rounded=0;orthogonalLoop=1;jettySize=auto;html=1;exitX=0.5;exitY=1;exitDx=0;exitDy=0;entryX=0.5;entryY=0;entryDx=0;entryDy=0;" edge="1" parent="1" source="JEXxJmJUqQq23T9oJtIg-59" target="JEXxJmJUqQq23T9oJtIg-60">
          <mxGeometry relative="1" as="geometry" />
        </mxCell>
        <mxCell id="JEXxJmJUqQq23T9oJtIg-92" style="edgeStyle=orthogonalEdgeStyle;rounded=0;orthogonalLoop=1;jettySize=auto;html=1;exitX=1;exitY=0.5;exitDx=0;exitDy=0;entryX=0.5;entryY=0;entryDx=0;entryDy=0;" edge="1" parent="1" source="JEXxJmJUqQq23T9oJtIg-59" target="JEXxJmJUqQq23T9oJtIg-91">
          <mxGeometry relative="1" as="geometry">
            <Array as="points">
              <mxPoint x="530" y="380" />
              <mxPoint x="530" y="1090" />
              <mxPoint x="240" y="1090" />
            </Array>
          </mxGeometry>
        </mxCell>
        <mxCell id="JEXxJmJUqQq23T9oJtIg-59" value="for (int i = 1; i &amp;lt;= n; i++)" style="shape=hexagon;perimeter=hexagonPerimeter2;whiteSpace=wrap;html=1;fixedSize=1;" vertex="1" parent="1">
          <mxGeometry x="180" y="340" width="120" height="80" as="geometry" />
        </mxCell>
        <mxCell id="JEXxJmJUqQq23T9oJtIg-64" style="edgeStyle=orthogonalEdgeStyle;rounded=0;orthogonalLoop=1;jettySize=auto;html=1;exitX=0.5;exitY=1;exitDx=0;exitDy=0;" edge="1" parent="1" source="JEXxJmJUqQq23T9oJtIg-60">
          <mxGeometry relative="1" as="geometry">
            <mxPoint x="240.18181818181802" y="510" as="targetPoint" />
          </mxGeometry>
        </mxCell>
        <mxCell id="JEXxJmJUqQq23T9oJtIg-66" style="edgeStyle=orthogonalEdgeStyle;rounded=0;orthogonalLoop=1;jettySize=auto;html=1;exitX=0.5;exitY=1;exitDx=0;exitDy=0;entryX=0.5;entryY=0;entryDx=0;entryDy=0;" edge="1" parent="1" source="JEXxJmJUqQq23T9oJtIg-60" target="JEXxJmJUqQq23T9oJtIg-63">
          <mxGeometry relative="1" as="geometry" />
        </mxCell>
        <mxCell id="JEXxJmJUqQq23T9oJtIg-60" value="cout &amp;lt;&amp;lt; &quot;Введите следующее число: \n&quot;;" style="shape=parallelogram;perimeter=parallelogramPerimeter;whiteSpace=wrap;html=1;fixedSize=1;" vertex="1" parent="1">
          <mxGeometry x="180" y="450" width="120" height="60" as="geometry" />
        </mxCell>
        <mxCell id="JEXxJmJUqQq23T9oJtIg-68" style="edgeStyle=orthogonalEdgeStyle;rounded=0;orthogonalLoop=1;jettySize=auto;html=1;exitX=0.5;exitY=1;exitDx=0;exitDy=0;entryX=0.5;entryY=0;entryDx=0;entryDy=0;" edge="1" parent="1" source="JEXxJmJUqQq23T9oJtIg-63" target="JEXxJmJUqQq23T9oJtIg-67">
          <mxGeometry relative="1" as="geometry" />
        </mxCell>
        <mxCell id="JEXxJmJUqQq23T9oJtIg-63" value="cin &amp;gt;&amp;gt; tmp;" style="shape=parallelogram;perimeter=parallelogramPerimeter;whiteSpace=wrap;html=1;fixedSize=1;" vertex="1" parent="1">
          <mxGeometry x="180" y="555" width="120" height="60" as="geometry" />
        </mxCell>
        <mxCell id="JEXxJmJUqQq23T9oJtIg-71" style="edgeStyle=orthogonalEdgeStyle;rounded=0;orthogonalLoop=1;jettySize=auto;html=1;exitX=0;exitY=0.5;exitDx=0;exitDy=0;entryX=0.5;entryY=0;entryDx=0;entryDy=0;" edge="1" parent="1" source="JEXxJmJUqQq23T9oJtIg-67" target="JEXxJmJUqQq23T9oJtIg-69">
          <mxGeometry relative="1" as="geometry" />
        </mxCell>
        <mxCell id="JEXxJmJUqQq23T9oJtIg-75" style="edgeStyle=orthogonalEdgeStyle;rounded=0;orthogonalLoop=1;jettySize=auto;html=1;exitX=1;exitY=0.5;exitDx=0;exitDy=0;entryX=0.5;entryY=0;entryDx=0;entryDy=0;" edge="1" parent="1" source="JEXxJmJUqQq23T9oJtIg-67" target="JEXxJmJUqQq23T9oJtIg-74">
          <mxGeometry relative="1" as="geometry" />
        </mxCell>
        <mxCell id="JEXxJmJUqQq23T9oJtIg-67" value="if (i == 1)" style="rhombus;whiteSpace=wrap;html=1;" vertex="1" parent="1">
          <mxGeometry x="200" y="650" width="80" height="80" as="geometry" />
        </mxCell>
        <mxCell id="JEXxJmJUqQq23T9oJtIg-73" style="edgeStyle=orthogonalEdgeStyle;rounded=0;orthogonalLoop=1;jettySize=auto;html=1;exitX=0.5;exitY=1;exitDx=0;exitDy=0;entryX=0.5;entryY=0;entryDx=0;entryDy=0;" edge="1" parent="1" source="JEXxJmJUqQq23T9oJtIg-69" target="JEXxJmJUqQq23T9oJtIg-70">
          <mxGeometry relative="1" as="geometry" />
        </mxCell>
        <mxCell id="JEXxJmJUqQq23T9oJtIg-69" value="min = tmp;" style="rounded=0;whiteSpace=wrap;html=1;" vertex="1" parent="1">
          <mxGeometry x="30" y="730" width="120" height="60" as="geometry" />
        </mxCell>
        <mxCell id="JEXxJmJUqQq23T9oJtIg-86" style="edgeStyle=orthogonalEdgeStyle;rounded=0;orthogonalLoop=1;jettySize=auto;html=1;exitX=0.5;exitY=1;exitDx=0;exitDy=0;entryX=0;entryY=0.5;entryDx=0;entryDy=0;" edge="1" parent="1" source="JEXxJmJUqQq23T9oJtIg-70" target="JEXxJmJUqQq23T9oJtIg-59">
          <mxGeometry relative="1" as="geometry">
            <Array as="points">
              <mxPoint x="90" y="1060" />
              <mxPoint x="10" y="1060" />
              <mxPoint x="10" y="380" />
            </Array>
          </mxGeometry>
        </mxCell>
        <mxCell id="JEXxJmJUqQq23T9oJtIg-70" value="max = tmp;" style="rounded=0;whiteSpace=wrap;html=1;" vertex="1" parent="1">
          <mxGeometry x="30" y="830" width="120" height="60" as="geometry" />
        </mxCell>
        <mxCell id="JEXxJmJUqQq23T9oJtIg-72" value="1" style="text;html=1;align=center;verticalAlign=middle;resizable=0;points=[];autosize=1;strokeColor=none;fillColor=none;" vertex="1" parent="1">
          <mxGeometry x="75" y="658" width="30" height="30" as="geometry" />
        </mxCell>
        <mxCell id="JEXxJmJUqQq23T9oJtIg-77" style="edgeStyle=orthogonalEdgeStyle;rounded=0;orthogonalLoop=1;jettySize=auto;html=1;exitX=0;exitY=0.5;exitDx=0;exitDy=0;entryX=0.5;entryY=0;entryDx=0;entryDy=0;" edge="1" parent="1" source="JEXxJmJUqQq23T9oJtIg-74" target="JEXxJmJUqQq23T9oJtIg-76">
          <mxGeometry relative="1" as="geometry" />
        </mxCell>
        <mxCell id="JEXxJmJUqQq23T9oJtIg-81" style="edgeStyle=orthogonalEdgeStyle;rounded=0;orthogonalLoop=1;jettySize=auto;html=1;exitX=1;exitY=0.5;exitDx=0;exitDy=0;" edge="1" parent="1" source="JEXxJmJUqQq23T9oJtIg-74" target="JEXxJmJUqQq23T9oJtIg-80">
          <mxGeometry relative="1" as="geometry" />
        </mxCell>
        <mxCell id="JEXxJmJUqQq23T9oJtIg-74" value="if (tmp &amp;gt; max)" style="rhombus;whiteSpace=wrap;html=1;" vertex="1" parent="1">
          <mxGeometry x="315" y="720" width="80" height="80" as="geometry" />
        </mxCell>
        <mxCell id="JEXxJmJUqQq23T9oJtIg-87" style="edgeStyle=orthogonalEdgeStyle;rounded=0;orthogonalLoop=1;jettySize=auto;html=1;exitX=0.5;exitY=1;exitDx=0;exitDy=0;" edge="1" parent="1" source="JEXxJmJUqQq23T9oJtIg-76">
          <mxGeometry relative="1" as="geometry">
            <mxPoint x="89.99999999999989" y="1060" as="targetPoint" />
            <Array as="points">
              <mxPoint x="270" y="1060" />
            </Array>
          </mxGeometry>
        </mxCell>
        <mxCell id="JEXxJmJUqQq23T9oJtIg-76" value="max = tmp;" style="rounded=0;whiteSpace=wrap;html=1;" vertex="1" parent="1">
          <mxGeometry x="210" y="830" width="120" height="60" as="geometry" />
        </mxCell>
        <mxCell id="JEXxJmJUqQq23T9oJtIg-78" value="1" style="text;html=1;align=center;verticalAlign=middle;resizable=0;points=[];autosize=1;strokeColor=none;fillColor=none;" vertex="1" parent="1">
          <mxGeometry x="255" y="738" width="30" height="30" as="geometry" />
        </mxCell>
        <mxCell id="JEXxJmJUqQq23T9oJtIg-79" value="0" style="text;html=1;align=center;verticalAlign=middle;resizable=0;points=[];autosize=1;strokeColor=none;fillColor=none;" vertex="1" parent="1">
          <mxGeometry x="335" y="668" width="30" height="30" as="geometry" />
        </mxCell>
        <mxCell id="JEXxJmJUqQq23T9oJtIg-83" style="edgeStyle=orthogonalEdgeStyle;rounded=0;orthogonalLoop=1;jettySize=auto;html=1;exitX=0;exitY=0.5;exitDx=0;exitDy=0;entryX=0.5;entryY=0;entryDx=0;entryDy=0;" edge="1" parent="1" source="JEXxJmJUqQq23T9oJtIg-80" target="JEXxJmJUqQq23T9oJtIg-82">
          <mxGeometry relative="1" as="geometry" />
        </mxCell>
        <mxCell id="JEXxJmJUqQq23T9oJtIg-89" style="edgeStyle=orthogonalEdgeStyle;rounded=0;orthogonalLoop=1;jettySize=auto;html=1;exitX=1;exitY=0.5;exitDx=0;exitDy=0;" edge="1" parent="1" source="JEXxJmJUqQq23T9oJtIg-80">
          <mxGeometry relative="1" as="geometry">
            <mxPoint x="390" y="1060" as="targetPoint" />
            <Array as="points">
              <mxPoint x="514" y="860" />
              <mxPoint x="514" y="1060" />
            </Array>
          </mxGeometry>
        </mxCell>
        <mxCell id="JEXxJmJUqQq23T9oJtIg-90" value="0" style="edgeLabel;html=1;align=center;verticalAlign=middle;resizable=0;points=[];" vertex="1" connectable="0" parent="JEXxJmJUqQq23T9oJtIg-89">
          <mxGeometry x="-0.9019" y="14" relative="1" as="geometry">
            <mxPoint as="offset" />
          </mxGeometry>
        </mxCell>
        <mxCell id="JEXxJmJUqQq23T9oJtIg-80" value="if (tmp &amp;lt; min)" style="rhombus;whiteSpace=wrap;html=1;" vertex="1" parent="1">
          <mxGeometry x="414" y="820" width="80" height="80" as="geometry" />
        </mxCell>
        <mxCell id="JEXxJmJUqQq23T9oJtIg-88" style="edgeStyle=orthogonalEdgeStyle;rounded=0;orthogonalLoop=1;jettySize=auto;html=1;exitX=0.5;exitY=1;exitDx=0;exitDy=0;" edge="1" parent="1" source="JEXxJmJUqQq23T9oJtIg-82">
          <mxGeometry relative="1" as="geometry">
            <mxPoint x="269.9999999999999" y="1060" as="targetPoint" />
            <Array as="points">
              <mxPoint x="390" y="1060" />
            </Array>
          </mxGeometry>
        </mxCell>
        <mxCell id="JEXxJmJUqQq23T9oJtIg-82" value="min = tmp;" style="rounded=0;whiteSpace=wrap;html=1;" vertex="1" parent="1">
          <mxGeometry x="330" y="920" width="120" height="60" as="geometry" />
        </mxCell>
        <mxCell id="JEXxJmJUqQq23T9oJtIg-84" value="1" style="text;html=1;align=center;verticalAlign=middle;resizable=0;points=[];autosize=1;strokeColor=none;fillColor=none;" vertex="1" parent="1">
          <mxGeometry x="385" y="838" width="30" height="30" as="geometry" />
        </mxCell>
        <mxCell id="JEXxJmJUqQq23T9oJtIg-85" value="0" style="text;html=1;align=center;verticalAlign=middle;resizable=0;points=[];autosize=1;strokeColor=none;fillColor=none;" vertex="1" parent="1">
          <mxGeometry x="435" y="738" width="30" height="30" as="geometry" />
        </mxCell>
        <mxCell id="JEXxJmJUqQq23T9oJtIg-91" value="cout &amp;lt;&amp;lt; &quot;Сумма максимального и минимального чисел равна - &quot; &amp;lt;&amp;lt; max + min &amp;lt;&amp;lt; endl;" style="rhombus;whiteSpace=wrap;html=1;" vertex="1" parent="1">
          <mxGeometry x="70" y="1130" width="340" height="80" as="geometry" />
        </mxCell>
      </root>
    </mxGraphModel>
  </diagram>
</mxfile>
